<?xml version="1.0" encoding="UTF-8" standalone="no"?>
<svg
   xmlns:dc="http://purl.org/dc/elements/1.1/"
   xmlns:cc="http://creativecommons.org/ns#"
   xmlns:rdf="http://www.w3.org/1999/02/22-rdf-syntax-ns#"
   xmlns:svg="http://www.w3.org/2000/svg"
   xmlns="http://www.w3.org/2000/svg"
   xmlns:sodipodi="http://sodipodi.sourceforge.net/DTD/sodipodi-0.dtd"
   xmlns:inkscape="http://www.inkscape.org/namespaces/inkscape"
   width="40"
   height="40"
   viewBox="0 0 500 500"
   version="1.1"
   sodipodi:docname="balance.svg"
   id="svg2"
   inkscape:version="0.91 r13725">
  <metadata
     id="metadata10">
    <rdf:RDF>
      <cc:Work
         rdf:about="">
        <dc:format>image/svg+xml</dc:format>
        <dc:type
           rdf:resource="http://purl.org/dc/dcmitype/StillImage" />
      </cc:Work>
    </rdf:RDF>
  </metadata>
  <defs
     id="defs8" />
  <sodipodi:namedview
     pagecolor="#ffffff"
     bordercolor="#666666"
     borderopacity="1"
     objecttolerance="10"
     gridtolerance="10"
     guidetolerance="10"
     inkscape:pageopacity="0"
     inkscape:pageshadow="2"
     inkscape:window-width="1377"
     inkscape:window-height="783"
     id="namedview6"
     showgrid="false"
     inkscape:zoom="4.72"
     inkscape:cx="-2.7542373"
     inkscape:cy="25"
     inkscape:window-x="65"
     inkscape:window-y="24"
     inkscape:window-maximized="0"
     inkscape:current-layer="layer1" />
  <g
     inkscape:label="Layer 1"
     inkscape:groupmode="layer"
     id="layer1"
     transform="translate(0,-552.36216)">
    <path
       style="fill:#1e88e5;fill-opacity:1;fill-rule:nonzero;stroke:none"
       d="m 250.00001,1052.3622 0,0 C 111.92803,1052.3622 0,940.47058 0,802.44685 l 0,-0.1693 C 0,664.25232 111.92803,552.3622 250.00001,552.3622 l 0,0 C 388.07047,552.3622 500,664.25232 500,802.27755 l 0,0.1693 c 0,138.02373 -111.92953,249.91535 -249.99999,249.91535"
       id="path4144" />
    <path
       id="path4176"
       style="fill:#ffffff;fill-opacity:1;fill-rule:nonzero;stroke:none"
       d="m 395.03237,839.67618 1.03735,-0.42174 -35.04158,-86.18282 0,-16.47558 c 2.64176,-3.06716 1.74353,-8.48497 -1.78739,-10.48942 -3.57176,-2.02563 -7.26599,0.36733 -8.46968,4.29312 -9.70362,-0.74979 -20.27975,-1.29097 -29.98337,-2.04074 -5.47104,-3.94997 -10.99954,-7.9332 -17.20248,-10.59221 -14.28096,-6.12223 -30.52472,-4.64686 -45.98215,-3.06264 l 0,-9.08357 c 1.99002,-2.73762 3.91199,-6.76922 5.90201,-9.50682 -4.45789,-4.2493 -8.03267,-9.50382 -12.49055,-13.75461 l -2.02934,0 c -4.45788,4.25079 -8.03266,9.50533 -12.49055,13.75461 1.99002,2.73761 3.912,6.76921 5.90202,9.50682 l 0,9.08357 c -15.45744,-1.58422 -31.7012,-3.05959 -45.98216,3.06264 -6.20293,2.659 -11.73144,6.64224 -17.20248,10.59221 -9.70361,0.74978 -20.27975,1.29095 -29.98336,2.04074 -1.20369,-3.92579 -4.89793,-6.31875 -8.46969,-4.29312 -3.53092,2.00445 -4.42915,7.42226 -1.78738,10.48942 l 0,16.47558 -35.04159,86.18282 1.03735,0.42174 -8.031152,0 c 0,14.51346 20.166342,26.27872 45.044612,26.27872 24.87676,0 45.0431,-11.76526 45.0431,-26.27872 l -8.02964,0 1.03584,-0.42175 -35.04159,-86.18281 0,-13.59437 c 5.7886,1.24107 13.64131,0.86467 17.56843,1.08991 9.98185,0.5714 20.08922,-0.89792 29.48283,-4.32638 9.78527,-3.57054 19.55996,-9.32997 29.85786,-7.76388 10.36443,1.57516 18.43792,10.65117 21.4169,20.69917 2.97898,10.04649 1.68154,20.87151 -0.76969,31.06011 0.0363,0.007 0.0393,-0.005 0.0681,-10e-4 -0.0408,0.0393 -0.0771,0.0469 -0.1194,0.11488 -7.04522,6.29911 -11.11145,15.79535 -10.80599,25.23869 0.30394,9.44335 4.97353,18.65844 12.4104,24.49042 -0.4975,11.9391 -0.0711,24.93334 -0.56858,36.87245 -0.50053,11.99199 -7.32194,23.14806 -10.33721,34.76668 -3.98004,0 -7.58052,-0.4535 -11.56056,-0.4535 -1.5651,3.44961 -3.14532,6.14641 -4.70891,9.59602 -9.20157,0.36129 -18.94601,0.13001 -28.14759,0.49129 -2.48752,3.23345 -5.7765,7.52052 -8.26402,10.75396 0.71526,0.31896 2.99108,-0.0605 3.70633,0.25849 l 65.78254,-0.20709 65.78255,0.20709 c 0.71526,-0.31895 2.99108,0.0605 3.70633,-0.25849 -2.48751,-3.23344 -5.77648,-7.52051 -8.26402,-10.75396 -9.20157,-0.36128 -18.94602,-0.13 -28.14759,-0.49129 -1.56357,-3.44961 -3.14379,-6.14641 -4.70891,-9.59602 -3.98155,0 -7.58052,0.4535 -11.56056,0.4535 -3.01527,-11.61863 -9.83668,-22.77469 -10.33721,-34.76668 -0.49751,-11.93911 -0.071,-24.93335 -0.56858,-36.87245 7.43537,-5.83198 12.10646,-15.04707 12.4104,-24.49042 0.30546,-9.44334 -3.76077,-18.93958 -10.80598,-25.23869 -0.0423,-0.068 -0.0786,-0.0756 -0.1194,-0.11488 0.0287,-0.002 0.0317,0.01 0.0665,10e-4 -2.44972,-10.1886 -3.74716,-21.01362 -0.76818,-31.06011 2.97898,-10.048 11.05247,-19.12401 21.4169,-20.69917 10.2979,-1.56609 20.07259,4.19334 29.85786,7.76388 9.3921,3.42846 19.50098,4.89778 29.48283,4.32638 3.92712,-0.22524 11.77832,0.15116 17.56843,-1.08991 l 0,13.59437 -35.04158,86.18281 1.03583,0.42175 -8.02963,0 c 0,14.51346 20.16633,26.27872 45.04309,26.27872 24.87827,0 45.04461,-11.76526 45.04461,-26.27872 l -8.03115,0 z m -288.85528,0 34.69832,-85.33779 2.20929,0 34.69832,85.33779 -71.60593,0 z m 216.03961,0 34.69681,-85.33779 2.2108,0 34.69832,85.33779 -71.60593,0 z"
       inkscape:connector-curvature="0" />
  </g>
</svg>
