<svg
   xmlns:dc="http://purl.org/dc/elements/1.1/"
   xmlns:cc="http://creativecommons.org/ns#"
   xmlns:rdf="http://www.w3.org/1999/02/22-rdf-syntax-ns#"
   xmlns:svg="http://www.w3.org/2000/svg"
   xmlns="http://www.w3.org/2000/svg"
   xmlns:sodipodi="http://sodipodi.sourceforge.net/DTD/sodipodi-0.dtd"
   xmlns:inkscape="http://www.inkscape.org/namespaces/inkscape"
   version="1.1"
   viewBox="0 0 40 47">
  <path
     d="M 36.8,47 3.2,47 C 1.4319999,47 0,45.684 0,44.0625 L 0,8.8125 C 0,7.1895313 1.4319999,5.875 3.2,5.875 l 0,35.25 c 0,1.6215 1.4336,2.9375 3.2,2.9375 l 6.4,0 c 1.768,0 3.2,-1.316 3.2,-2.9375 l 0,-35.25 20.8,0 c 1.768,0 3.2,1.316 3.2,2.9375 l 0,35.25 C 40,45.684 38.568,47 36.8,47 Z m -8,-4.40625 3.2,0 0,-2.9375 -3.2,0 0,2.9375 z m 0,-4.40625 3.2,0 0,-2.9375 -3.2,0 0,2.9375 z m 0,-4.40625 3.2,0 0,-2.9375 -3.2,0 0,2.9375 z m 0,-4.40625 3.2,0 0,-2.9375 -3.2,0 0,2.9375 z m -4.8,13.21875 3.2,0 0,-2.9375 -3.2,0 0,2.9375 z m 0,-4.40625 3.2,0 0,-2.9375 -3.2,0 0,2.9375 z m 0,-4.40625 3.2,0 0,-2.9375 -3.2,0 0,2.9375 z m 0,-4.40625 3.2,0 0,-2.9375 -3.2,0 0,2.9375 z M 36.8,10.28125 C 36.8,9.4690313 36.0848,8.8125 35.2,8.8125 l -14.4,0 c -0.8832,0 -1.6,0.6565313 -1.6,1.46875 l 0,5.875 c 0,0.81075 0.7168,1.46875 1.6,1.46875 l 14.4,0 c 0.8848,0 1.6,-0.658 1.6,-1.46875 l 0,-5.875 z m 0,16.15625 -3.2,0 0,2.9375 3.2,0 0,-2.9375 z m 0,4.40625 -3.2,0 0,2.9375 3.2,0 0,-2.9375 z m 0,4.40625 -3.2,0 0,2.9375 3.2,0 0,-2.9375 z m 0,4.40625 -3.2,0 0,2.9375 3.2,0 0,-2.9375 z m -24,2.9375 -6.4,0 c -0.8832,0 -1.6,-0.656531 -1.6,-1.46875 L 4.8,4.40625 C 4.8,3.594031 5.5168,2.9375 6.4,2.9375 l 3.100801,0 0,-2.9375 1.699199,0 0,2.9375 1.6,0 c 0.8832,0 1.6,0.656531 1.6,1.46875 l 0,36.71875 c 0,0.812219 -0.7168,1.46875 -1.6,1.46875 z"
     id="path6"
     inkscape:connector-curvature="0" fill="currentColor" />
</svg>
