<svg
   xmlns:dc="http://purl.org/dc/elements/1.1/"
   xmlns:cc="http://creativecommons.org/ns#"
   xmlns:rdf="http://www.w3.org/1999/02/22-rdf-syntax-ns#"
   xmlns:svg="http://www.w3.org/2000/svg"
   xmlns="http://www.w3.org/2000/svg"
   xmlns:sodipodi="http://sodipodi.sourceforge.net/DTD/sodipodi-0.dtd"
   xmlns:inkscape="http://www.inkscape.org/namespaces/inkscape"
   version="1.1"
   viewBox="0 0 46 45">
  <path
     d="m 34.390191,3e-7 c -1.796595,0 -3.252343,1.36792 -3.252343,3.0561967 l 0,3.1980204 c -1e-6,1.6867242 1.455748,3.0561976 3.252343,3.0561976 1.796595,0 3.250348,-1.3694734 3.250348,-3.0561976 l 0,-3.1980204 C 37.640539,1.3679202 36.186786,3e-7 34.390191,3e-7 Z m -12.410416,4.654208 a 12.522223,12.52841 0 0 1 2.042448,6.8514747 12.522223,12.52841 0 0 1 -0.670834,4.011008 l 19.346353,0 0,26.379172 -36.3288183,0 0,-18.974388 a 12.522223,12.52841 0 0 1 -3.302257,-2.175293 l 0,21.149681 C 3.0666667,43.608966 4.5459087,45 6.3689237,45 L 42.697742,45 C 44.520758,45 46,43.608966 46,41.895863 L 46,7.758346 C 46,6.0436897 44.520758,4.6542083 42.697742,4.6542083 l -3.302256,0 0,1.5520687 c 0,2.571207 -2.220859,4.656206 -4.955382,4.656206 -2.734524,0 -4.953385,-2.084999 -4.953385,-4.656206 l 0,-1.5520687 -7.506944,0 z M 21.80408,18.620827 a 12.522223,12.52841 0 0 1 -3.875261,3.621494 l 0,1.032714 4.953387,0 0,-4.654208 -1.078126,0 z m 4.380381,0 0,4.654208 4.953387,0 0,-4.654208 -4.953387,0 z m 8.255643,0 0,4.654208 4.955382,0 0,-4.654208 -4.955382,0 z m -24.768923,7.758346 0,4.656206 4.955382,0 0,-4.656206 -4.955382,0 z m 8.257638,0 0,4.656206 4.953387,0 0,-4.656206 -4.953387,0 z m 8.255642,0 0,4.656206 4.953387,0 0,-4.656206 -4.953387,0 z m 8.255643,0 0,4.656206 4.955382,0 0,-4.656206 -4.955382,0 z m -24.768923,7.758345 0,4.656206 4.955382,0 0,-4.656206 -4.955382,0 z m 8.257638,0 0,4.656206 4.953387,0 0,-4.656206 -4.953387,0 z m 8.255642,0 0,4.656206 4.953387,0 0,-4.656206 -4.953387,0 z m 8.255643,0 0,4.656206 4.955382,0 0,-4.656206 -4.955382,0 z"
     id="path4159"
     inkscape:connector-curvature="0" fill="currentColor" />
  <path
     id="path4172"
     d="m 12.094352,5.7251833 0,6.0501627 5.183292,3.079246 -0.863881,1.458953 -6.047176,-3.673889 0,-6.9144727 1.727765,0 z M 11.5,20.743417 c 5.07502,0 9.233173,-4.159055 9.233173,-9.237734 0,-5.0786798 -4.157001,-9.2377352 -9.233173,-9.2377352 -5.0761716,0 -9.2331732,4.1590554 -9.2331732,9.2377352 0,5.078679 4.1570016,9.237734 9.2331732,9.237734 z M 11.5,0 C 17.870844,0 23,5.1316905 23,11.505683 23,17.879672 17.870844,23.011365 11.5,23.011365 5.1291564,23.011365 0,17.879672 0,11.505683 0,5.1316905 5.1291564,0 11.5,0 Z"
     inkscape:connector-curvature="0" fill="currentColor" />
</svg>
