<?xml version="1.0" encoding="UTF-8" standalone="no"?>
<svg
   xmlns:dc="http://purl.org/dc/elements/1.1/"
   xmlns:cc="http://creativecommons.org/ns#"
   xmlns:rdf="http://www.w3.org/1999/02/22-rdf-syntax-ns#"
   xmlns:svg="http://www.w3.org/2000/svg"
   xmlns="http://www.w3.org/2000/svg"
   xmlns:sodipodi="http://sodipodi.sourceforge.net/DTD/sodipodi-0.dtd"
   xmlns:inkscape="http://www.inkscape.org/namespaces/inkscape"
   version="1.1"
   viewBox="0 0 52 47"
   id="svg2"
   inkscape:version="0.91 r13725"
   sodipodi:docname="footer_map.svg">
  <metadata
     id="metadata12">
    <rdf:RDF>
      <cc:Work
         rdf:about="">
        <dc:format>image/svg+xml</dc:format>
        <dc:type
           rdf:resource="http://purl.org/dc/dcmitype/StillImage" />
      </cc:Work>
    </rdf:RDF>
  </metadata>
  <defs
     id="defs10" />
  <sodipodi:namedview
     pagecolor="#ffffff"
     bordercolor="#666666"
     borderopacity="1"
     objecttolerance="10"
     gridtolerance="10"
     guidetolerance="10"
     inkscape:pageopacity="0"
     inkscape:pageshadow="2"
     inkscape:window-width="1565"
     inkscape:window-height="993"
     id="namedview8"
     showgrid="false"
     inkscape:zoom="20.085106"
     inkscape:cx="23.337047"
     inkscape:cy="15.146135"
     inkscape:window-x="65"
     inkscape:window-y="24"
     inkscape:window-maximized="0"
     inkscape:current-layer="svg2" />
  <path
     sodipodi:nodetypes="ccccc"
     inkscape:connector-curvature="0"
     id="rect4153"
     d="M 10.110633,33.332812 0,45.864 16.11,41.55 21.46,30.35 Z"
     style="fill:currentColor;fill-opacity:1;stroke:none;stroke-width:10;stroke-linecap:round;stroke-linejoin:round;stroke-miterlimit:4;stroke-dasharray:none;stroke-opacity:1" />
  <path
     style="fill:currentColor;fill-opacity:1;stroke:none;stroke-width:10;stroke-linecap:round;stroke-linejoin:round;stroke-miterlimit:4;stroke-dasharray:none;stroke-opacity:1"
     d="M 22.101,30.349609 16.777,41.529297 35.328,47 35.691,33.230469 c -1.847994,2.677107 -3.179281,4.4375 -3.179281,4.4375 0,0 -2.072057,-2.499959 -4.525391,-6.28125 z"
     id="rect4153-6"
     inkscape:connector-curvature="0"
     sodipodi:nodetypes="ccccccc" />
  <path
     sodipodi:nodetypes="ccccc"
     inkscape:connector-curvature="0"
     id="rect4153-6-7"
     d="M 36.321,32.81 35.943,47 52,42.996958 46.806509,30.622355 Z"
     style="fill:currentColor;fill-opacity:1;stroke:none;stroke-width:10;stroke-linecap:round;stroke-linejoin:round;stroke-miterlimit:4;stroke-dasharray:none;stroke-opacity:1" />
  <path
     inkscape:connector-curvature="0"
     d="m 32.511653,0 c -6.155454,0 -11.145127,4.9218766 -11.145127,11.077331 0,11.145127 11.145127,24.519279 11.145127,24.519279 0,0 11.145127,-13.374152 11.145127,-24.519279 C 43.65678,4.9218766 38.667107,0 32.511653,0 Z m 0,17.764407 c -3.693495,0 -6.687076,-2.993582 -6.687076,-6.687076 0,-3.6934958 2.993581,-6.687077 6.687076,-6.687077 3.693495,0 6.687076,2.9935812 6.687076,6.687077 0,3.693494 -2.993581,6.687076 -6.687076,6.687076 z"
     id="path4237"
     style="fill:currentColor;fill-opacity:1"
     sodipodi:nodetypes="sscsssssss" />
</svg>
