<svg xmlns="http://www.w3.org/2000/svg" width="35" height="25" viewBox="0 0 35 25">
  <path fill="#848F97" d="M25.757 15.552l3.967-9.75h.252l3.967 9.75zm-24.7 0l3.967-9.75h.252l3.967 9.75zm33.024 0l.12-.048-4-9.848V3.774c.307-.35.2-.97-.2-1.2-.41-.23-.83.044-.97.492-1.106-.086-2.315-.148-3.425-.233-.624-.452-5.455-1.74-7.223-1.56V.233c.227-.31-1.967-.31-1.74 0v1.04c-1.767-.18-6.6 1.108-7.223 1.56-1.11.085-2.32.147-3.43.233-.14-.448-.56-.722-.97-.49-.403.228-.506.848-.204 1.198v1.882L.8 15.504l.12.048H0c0 1.658 2.306 3.003 5.15 3.003 2.844 0 5.15-1.345 5.15-3.003h-.92l.12-.048-4.006-9.848V4.103c.662.142 1.56.1 2.01.125 1.14.065 2.295-.103 3.37-.495 1.118-.408 2.236-1.066 3.413-.887 1.185.18 2.108 1.217 2.45 2.365.34 1.15-.054 3.5-.095 3.57-.806.72.175 8.53.118 9.898-.057 1.37-.837 2.645-1.182 3.973-.455 0-1.68.65-1.86 1.045-1.052.043-3.878.917-4.163 1.286.082.037.342-.007.424.03l7.52-.024 7.52.024c.08-.04.34.004.42-.03-.29-.37-3.11-1.246-4.168-1.288-.18-.394-1.405-1.044-1.86-1.044-.345-1.33-1.125-2.604-1.18-3.974-.06-1.362.922-9.173.116-9.893-.04-.065-.434-2.412-.094-3.56.34-1.146 1.263-2.183 2.45-2.363 1.175-.18 2.293.48 3.412.888 1.072.394 2.23.56 3.37.497.45-.026 1.345.017 2.01-.125v1.55l-4.004 9.84.12.048h-.92c0 1.658 2.306 3.003 5.15 3.003 2.844 0 5.15-1.345 5.15-3.003z"/>
</svg>
