<svg
   xmlns:svg="http://www.w3.org/2000/svg"
   xmlns="http://www.w3.org/2000/svg"
   xmlns:sodipodi="http://sodipodi.sourceforge.net/DTD/sodipodi-0.dtd"
   xmlns:inkscape="http://www.inkscape.org/namespaces/inkscape"
   viewBox="0 0 200 115"
   version="1.1"
   sodipodi:docname="logo.svg">
  <defs
     id="defs4" />
  <sodipodi:namedview
     inkscape:zoom="2.8"
     inkscape:cx="28.832376"
     units="px"
     inkscape:window-width="2495"
     inkscape:window-height="1416"
     inkscape:window-x="65"
     inkscape:window-y="24"
     inkscape:window-maximized="1"
     inkscape:cy="90.911049" />
  <g
     transform="translate(0,-966.8934)">
    <g>
      <path
         d="m 30.010756,966.89347 q 7.173302,0 10.247575,2.77284 1.756727,1.45939 1.756727,2.62691 0,1.02157 -1.903121,3.94036 -1.756727,2.91877 -3.659848,2.91877 -1.024757,0 -1.903121,-0.87563 -5.56297,-4.96193 -9.076424,-4.96193 -4.09903,0 -6.587727,2.77285 -2.342303,2.62689 -2.342303,6.42132 0,8.02665 15.224969,21.59894 8.783636,7.8807 12.004302,15.3237 3.36706,7.4429 3.36706,17.6586 0,7.4429 -1.610332,12.5507 -1.610334,5.1079 -5.709364,12.2589 -7.026908,12.113 -17.420878,18.3883 -2.635091,1.6054 -7.905272,1.6054 -3.806242,0 -6.4413328,-1.3135 -2.6350908,-1.3134 -2.6350908,-3.3566 0,-4.5241 4.0990301,-7.5888 1.1711515,-0.7297 3.2206665,0.8756 3.952636,3.5026 10.101181,3.5026 7.612485,0 7.612485,-11.967 0,-1.4594 -0.439182,-3.0647 -0.439182,-1.6054 -1.610334,-3.5026 -1.171151,-1.8972 -2.049514,-3.2107 -0.878364,-1.3134 -2.927879,-3.5025 -2.049515,-2.335 -3.074273,-3.3566 -0.878363,-1.0216 -3.36706,-3.5025 -2.488697,-2.627 -3.220667,-3.3566 Q -9.16953e-8,1024.5394 -9.16953e-8,1012.2805 q 0,-9.0482 2.3423028916953,-15.0317 2.4886968,-6.12944 7.3196966,-11.82107 1.9031206,-7.15101 7.4660896,-12.84263 5.562971,-5.69163 12.882667,-5.69163 z m -1.756727,48.88953 q -12.882666,-13.1344 -16.249727,-18.68014 -1.171151,-2.04315 -1.756727,-3.64848 -0.2927878,-0.58375 -0.8783635,-0.43782 -0.4391818,0 -0.5855757,0.43782 -1.6103333,6.12948 -1.6103333,10.65352 0,7.2969 3.0742725,13.2805 3.220666,5.9835 10.101181,13.1345 12.882667,13.1345 16.249727,18.6802 1.171151,2.0431 1.756727,3.6485 0.292788,0.5837 0.73197,0.5837 0.585575,-0.1459 0.731969,-0.5837 1.610334,-6.1294 1.610334,-10.6536 0,-7.2969 -3.220667,-13.2804 -3.074273,-5.9835 -9.954787,-13.1346 z M 173.34963,983.13181 q 2.10398,0 3.55339,1.02541 1.49616,1.02541 1.49616,2.51693 0,2.42371 -1.87021,2.42371 -0.37404,0 -0.98185,-0.8856 -0.60782,-0.88558 -1.68318,-1.77117 -1.07537,-0.88558 -2.57153,-0.88558 -1.63643,0 -3.03908,1.21185 -1.40265,1.21186 -1.40265,2.70338 0,1.35168 0.65457,2.28387 0.70132,0.9322 1.49616,0.9322 0.37404,0 1.40265,-0.0933 1.07537,-0.13983 1.63642,-0.13983 0.46756,0 0.79485,0.37288 0.37403,0.37288 0.37403,0.79237 0,1.07202 -0.88834,1.95761 -0.84159,0.88558 -1.68319,0.88558 -0.46754,0 -1.63642,-0.18644 -1.16888,-0.18644 -1.91696,-0.18644 -2.10397,0 -3.60014,1.53812 -1.4494,1.53821 -1.4494,3.49584 0,5.6398 4.58199,9.0889 4.62875,3.4491 11.0342,3.4491 3.64689,0 7.10677,-1.4449 3.45987,-1.4449 5.84437,-4.3347 2.43127,-2.8898 2.43127,-6.5254 0,-7.22457 -4.39498,-9.78811 -0.79483,-0.41949 -1.9637,-0.41949 -1.07537,0 -3.03909,1.49152 -1.96371,1.4449 -1.96371,3.44912 0,1.49152 0.60781,2.65678 0.65458,1.11866 1.87021,1.11866 1.12212,0 1.12212,-1.53817 0,-0.55931 0,-0.74575 0,-0.23305 0.0468,-0.65254 0.0935,-0.41948 0.28053,-0.60592 0.23377,-0.18644 0.56106,-0.18644 1.16888,0 1.96371,0.83897 0.79484,0.79237 0.79484,1.9576 0,1.30517 -0.98186,2.28397 -0.98186,0.9322 -2.24424,0.9322 -2.57153,0 -4.44173,-1.5848 -1.82345,-1.58474 -1.82345,-4.10168 0,-2.33049 2.10398,-4.56776 2.15073,-2.23727 4.53523,-3.44912 2.43127,-1.21186 4.11445,-1.49152 3.31961,-0.51271 5.14306,-1.35168 1.8702,-0.88558 1.8702,-1.63134 0,-1.16525 -0.60781,-2.00422 -0.60782,-0.88559 -1.63644,-0.88559 -0.88834,0 -1.30913,0.74576 -0.32729,0.55932 -1.02861,0.55932 -0.79484,0 -0.79484,-0.83898 0,-1.21186 0.88835,-2.05083 0.88835,-0.83898 2.15073,-0.83898 1.96371,0 3.55338,1.53813 1.58968,1.53812 1.58968,3.49574 0,1.81777 -1.82345,3.21607 -1.82345,1.35168 -3.6469,1.911 -1.77669,0.5127 -2.99232,0.55931 -1.96371,0.0933 -1.96371,0.51271 0,0.32627 0.74808,0.79237 4.76901,2.93642 4.76901,8.7161 0,7.69069 -5.79762,12.81769 -5.75087,5.1271 -13.74599,5.1271 -4.30147,0 -8.04187,-1.678 -3.7404,-1.6313 -6.17167,-4.894 -2.38451,-3.2161 -2.38451,-7.4109 0,-3.54245 2.01047,-5.63991 2.05723,-2.09745 4.34822,-2.74998 0.32729,-0.0933 0.37404,-0.37288 0.0468,-0.27966 -0.18702,-0.4661 -1.44941,-1.11863 -1.44941,-2.8898 0,-3.77539 2.7118,-5.91945 2.75855,-2.19065 6.59246,-2.19065 z"
         style="font-style:normal;font-variant:normal;font-weight:normal;font-stretch:normal;font-size:146.1663208px;line-height:1.25;font-family:'EB Garamond';-inkscape-font-specification:'EB Garamond';letter-spacing:0px;word-spacing:0px;fill:#2196f3;fill-opacity:1;stroke:none;stroke-width:0.41928825px;stroke-linecap:butt;stroke-linejoin:miter;stroke-opacity:1"
         id="path4505"
         inkscape:connector-curvature="0" />
      <path
         d="m 158.12996,1028.7755 c -1.08679,0 -1.43259,-0.099 -3.01339,-0.7879 -1.13619,-0.4925 -2.86519,-0.9849 -4.74238,-0.9849 -4.39659,0 -8.05218,3.201 -8.05218,7.4362 0,3.1518 2.0254,5.0724 3.70499,5.9588 0,0.2462 -0.247,0.6402 -0.494,0.9356 -0.83979,0.8865 -1.77839,1.7237 -2.61819,2.2654 -0.5434,0.394 -0.741,0.5909 -0.741,0.8372 0,1.7236 1.6796,3.398 3.60619,3.8905 0.4446,0.2954 0.0494,0.7386 -0.3952,1.1818 -1.1362,1.1328 -2.51939,2.4132 -3.35919,3.2996 -0.3458,0.394 -0.5434,1.0342 -0.5434,1.822 0,2.4624 2.1242,5.7126 8.20037,5.7126 6.42199,0 12.30057,-3.9396 12.30057,-9.3075 0,-4.9247 -4.14958,-5.4171 -6.91597,-5.4171 -2.1736,0 -4.19899,0.1477 -5.87859,0.1477 -2.32179,0 -3.45799,-0.9357 -3.45799,-2.0683 0,-1.4281 1.5808,-2.3639 2.17359,-2.7085 0.5928,0.049 1.2844,0.1477 2.1736,0.1477 6.27377,0 8.29917,-4.4322 8.29917,-7.8302 0,-0.8372 0,-1.6743 -0.0987,-2.5115 h 3.55679 c 0.741,-0.099 0.83979,-1.7729 0.2964,-2.0192 z m -4.64358,19.8955 c 3.55679,0 5.63157,1.2804 5.63157,4.2844 0,2.8072 -2.91459,5.2694 -7.31117,5.2694 -4.49538,0 -6.61958,-2.216 -6.61958,-4.8754 0,-1.8713 1.1856,-3.398 2.37119,-4.1366 0.69161,-0.4432 2.6676,-0.5418 4.24839,-0.5418 z m -2.6676,-8.9627 c -2.37119,0 -4.49538,-2.2654 -4.49538,-5.7619 0,-3.3487 1.7784,-5.5156 4.14958,-5.5156 3.0134,0 4.39659,2.8071 4.39659,6.1559 0,3.004 -1.38319,5.1216 -4.05079,5.1216 z m -31.83279,1.8713 c 0,3.5457 -0.0494,4.0382 -1.8772,4.2844 l -1.03739,0.1478 c -0.3458,0.2462 -0.24701,1.0834 0.0988,1.2311 1.38319,-0.099 2.86518,-0.1477 4.64358,-0.1477 1.729,0 3.16159,0.049 4.49539,0.1477 0.3458,-0.1477 0.44459,-0.9849 0.0988,-1.2311 l -0.88919,-0.1478 c -1.7784,-0.2955 -1.8772,-0.7387 -1.8772,-4.2844 v -7.5347 c 0,-1.4282 0.0987,-2.1176 0.741,-2.9548 0.6916,-0.9356 2.32179,-1.7236 4.19899,-1.7236 3.35918,0 4.64358,2.0684 4.64358,4.8754 v 7.3377 c 0,3.5457 -0.0494,3.9889 -1.87719,4.2844 l -0.9386,0.1478 c -0.34579,0.2462 -0.247,1.0834 0.0989,1.2311 1.33379,-0.099 2.81578,-0.1477 4.59418,-0.1477 1.72899,0 3.16159,0.049 4.64358,0.1477 0.3458,-0.1477 0.4446,-0.9849 0.0987,-1.2311 l -1.0868,-0.1478 c -1.77839,-0.2462 -1.87719,-0.7387 -1.87719,-4.2844 v -8.4703 c 0,-3.2996 -1.6796,-6.1066 -5.77978,-6.1066 -2.51939,0 -4.84119,1.2311 -6.91597,2.5115 -0.3458,0 -0.54341,-0.2462 -0.54341,-0.5417 0,-0.4432 0,-1.1819 0.0987,-2.3146 -0.0987,-0.2462 -0.34579,-0.3447 -0.54339,-0.3447 -0.988,0.7387 -3.80379,2.0191 -4.93999,2.4131 -0.247,0.1477 -0.247,0.6894 -0.0494,0.8864 l 0.4446,0.2955 c 1.3338,0.8865 1.3338,1.1327 1.3338,3.0533 z m -12.7359,0 c 0,3.5457 -0.0494,4.0382 -1.87719,4.2844 l -1.03741,0.1478 c -0.34579,0.2462 -0.24699,1.0834 0.0989,1.2311 1.3832,-0.099 2.86519,-0.1477 4.64359,-0.1477 1.72899,0 3.16158,0.049 4.64358,0.1477 0.34579,-0.1477 0.4446,-0.9849 0.0987,-1.2311 l -1.0374,-0.1478 c -1.7784,-0.2462 -1.87719,-0.7387 -1.87719,-4.2844 v -8.8643 c 0,-2.0192 0.0987,-4.383 0.1976,-6.1066 -0.0494,-0.197 -0.247,-0.2955 -0.494,-0.2955 -1.1362,0.7387 -3.95199,2.0191 -5.08818,2.4131 -0.24701,0.1477 -0.24701,0.6894 -0.0494,0.8864 l 0.4446,0.2955 c 1.3338,0.8865 1.3338,1.1327 1.3338,3.0533 z m 1.63019,-25.2142 c -1.48199,0 -2.66759,1.0342 -2.66759,2.6594 0,1.3296 0.988,2.4622 2.51939,2.4622 1.3832,0 2.6182,-0.7878 2.6182,-2.5608 0,-1.3788 -0.98801,-2.5608 -2.47,-2.5608 z m -18.032483,25.2142 c 0,3.5457 -0.0494,3.9889 -1.877193,4.2844 l -0.938597,0.1478 c -0.345799,0.2462 -0.247,1.0834 0.0988,1.2311 1.284396,-0.099 2.766391,-0.1477 4.544786,-0.1477 1.728994,0 3.16159,0.049 5.483383,0.1477 0.345798,-0.1477 0.444598,-0.9849 0.0988,-1.2311 l -1.778394,-0.1478 c -1.877194,-0.1477 -1.975994,-0.7387 -1.975994,-4.2844 v -6.6975 c 0,-1.6744 0.1482,-3.1026 0.642199,-3.792 0.395198,-0.5417 0.987996,-0.9849 1.778394,-0.9849 0.691597,0 1.432595,0.2955 2.173592,0.7879 0.3458,0.197 0.592799,0.3448 1.086797,0.3448 0.790398,0 2.12419,-0.6402 2.12419,-2.2654 0,-1.1819 -0.98799,-1.9698 -2.22299,-1.9698 -1.827794,0 -3.704988,1.5266 -5.433982,2.9548 -0.0988,-0.049 -0.1482,-0.197 -0.1482,-0.4433 v -2.8563 c 0,-0.1969 -0.148199,-0.2954 -0.395198,-0.3447 -1.234996,0.7387 -3.853188,2.0191 -4.989385,2.4131 -0.246999,0.1477 -0.246999,0.6894 -0.0494,0.8864 l 0.444599,0.2955 c 1.333795,0.8865 1.333795,1.1327 1.333795,3.0533 z m -12.735896,0 c 0,3.5457 -0.0494,4.0382 -1.877194,4.2844 l -1.037397,0.1478 c -0.345798,0.2462 -0.246999,1.0834 0.0988,1.2311 1.383196,-0.099 2.865191,-0.1477 4.643586,-0.1477 1.728994,0 3.161589,0.049 4.643585,0.1477 0.345798,-0.1477 0.444599,-0.9849 0.0988,-1.2311 l -1.037397,-0.1478 c -1.778394,-0.2462 -1.877193,-0.7387 -1.877193,-4.2844 v -8.8643 c 0,-2.0192 0.0988,-4.383 0.197599,-6.1066 -0.0494,-0.197 -0.246999,-0.2955 -0.493998,-0.2955 -1.136197,0.7387 -3.951988,2.0191 -5.088184,2.4131 -0.246999,0.1477 -0.246999,0.6894 -0.0494,0.8864 l 0.444598,0.2955 c 1.333796,0.8865 1.333796,1.1327 1.333796,3.0533 z m 1.630196,-25.2142 c -1.481996,0 -2.667592,1.0342 -2.667592,2.6594 0,1.3296 0.987996,2.4622 2.519392,2.4622 1.383196,0 2.618191,-0.7878 2.618191,-2.5608 0,-1.3788 -0.987996,-2.5608 -2.469991,-2.5608 z m -10.496695,18.1227 c 2.074793,0 2.766391,-0.049 2.914591,-0.3448 0.0988,-0.1969 0.197599,-0.5908 0.197599,-1.2803 0,-2.9548 -2.766391,-5.8603 -7.014777,-5.8603 -5.927982,0 -9.929369,5.0724 -9.929369,11.1296 0,2.1669 0.592799,4.4815 2.074794,6.4021 1.432595,1.8713 3.951987,3.2502 7.162977,3.2502 2.568791,0 6.12558,-1.2311 7.755775,-4.5799 -0.0494,-0.4432 -0.395199,-0.7387 -0.889197,-0.5909 -1.531395,1.9206 -2.914591,2.413 -4.544786,2.413 -5.285783,0 -8.200373,-4.2351 -8.200373,-9.2091 0,-1.231 0.0494,-1.3296 1.333795,-1.3296 z m -9.58357,-1.4774 c -0.345798,0 -0.345798,-0.1477 -0.345798,-0.2462 0.0494,-1.6252 2.568791,-4.2844 5.483382,-4.2844 2.865191,0 3.803788,1.7236 3.803788,3.1025 0,0.6402 -0.148199,0.8371 -0.296399,0.9357 -0.395199,0.2954 -1.481995,0.4924 -5.137584,0.4924 z m 88.845688,-42.24769 c -1.0868,0 -1.4326,-0.0984 -3.01339,-0.78794 -1.1362,-0.49246 -2.86519,-0.98493 -4.74239,-0.98493 -4.39658,0 -8.05217,3.20102 -8.05217,7.4362 0,3.15173 2.02539,5.07236 3.70498,5.95886 0,0.2462 -0.24699,0.6402 -0.49399,0.9356 -0.8398,0.8865 -1.7784,1.7237 -2.61819,2.2654 -0.5434,0.3939 -0.741,0.5909 -0.741,0.8371 0,1.7237 1.67959,3.398 3.60619,3.8905 0.4446,0.2955 0.0494,0.7387 -0.3952,1.1819 -1.1362,1.1327 -2.51939,2.4131 -3.35919,3.2996 -0.34579,0.3939 -0.5434,1.0341 -0.5434,1.822 0,2.4624 2.12419,5.7126 8.20038,5.7126 6.42197,0 12.30055,-3.9397 12.30055,-9.3076 0,-4.9246 -4.14958,-5.417 -6.91597,-5.417 -2.1736,0 -4.19899,0.1477 -5.87858,0.1477 -2.3218,0 -3.458,-0.9357 -3.458,-2.0683 0,-1.4282 1.5808,-2.3639 2.1736,-2.7086 0.59279,0.049 1.2844,0.1477 2.17359,0.1477 6.27379,0 8.29918,-4.43215 8.29918,-7.83012 0,-0.83719 0,-1.67438 -0.0988,-2.51156 h 3.55678 c 0.741,-0.0985 0.83981,-1.77287 0.2964,-2.01911 z m -4.64359,19.89549 c 3.55679,0 5.63159,1.2804 5.63159,4.2844 0,2.8071 -2.91459,5.2694 -7.31118,5.2694 -4.49539,0 -6.61958,-2.216 -6.61958,-4.8754 0,-1.8714 1.18559,-3.398 2.3712,-4.1366 0.69159,-0.4432 2.66758,-0.5418 4.24838,-0.5418 z m -2.66759,-8.9628 c -2.37119,0 -4.49539,-2.2653 -4.49539,-5.76182 0,-3.34875 1.7784,-5.51559 4.1496,-5.51559 3.01338,0 4.39658,2.80704 4.39658,6.15579 0,3.00399 -1.3832,5.12162 -4.05079,5.12162 z m -31.8328,1.8714 c 0,3.5457 -0.0494,4.0382 -1.87719,4.2844 l -1.0374,0.1478 c -0.3458,0.2462 -0.24699,1.0834 0.0988,1.2311 1.38319,-0.099 2.8652,-0.1477 4.64358,-0.1477 1.729,0 3.1616,0.049 4.49539,0.1477 0.3458,-0.1477 0.4446,-0.9849 0.0989,-1.2311 l -0.88921,-0.1478 c -1.77839,-0.2955 -1.87718,-0.7387 -1.87718,-4.2844 v -7.53472 c 0,-1.42815 0.0988,-2.1176 0.74099,-2.95479 0.69159,-0.93567 2.32179,-1.72362 4.19899,-1.72362 3.35919,0 4.64359,2.06835 4.64359,4.87539 v 7.33774 c 0,3.5457 -0.0494,3.9889 -1.8772,4.2844 l -0.9386,0.1478 c -0.3458,0.2462 -0.247,1.0834 0.0988,1.2311 1.33379,-0.099 2.81579,-0.1477 4.59418,-0.1477 1.729,0 3.1616,0.049 4.64359,0.1477 0.3458,-0.1477 0.4446,-0.9849 0.0988,-1.2311 l -1.08679,-0.1478 c -1.7784,-0.2462 -1.8772,-0.7387 -1.8772,-4.2844 v -8.47041 c 0,-3.2995 -1.67959,-6.10655 -5.77978,-6.10655 -2.51939,0 -4.84118,1.23117 -6.91598,2.51157 -0.3458,0 -0.54339,-0.24623 -0.54339,-0.54171 0,-0.44321 0,-1.18191 0.0988,-2.31458 -0.0988,-0.24623 -0.3458,-0.34472 -0.5434,-0.34472 -0.98799,0.7387 -3.80378,2.01909 -4.93998,2.41307 -0.247,0.14774 -0.247,0.68945 -0.0494,0.88643 l 0.4446,0.29548 c 1.33379,0.88644 1.33379,1.13267 1.33379,3.05327 z m -12.735893,0 c 0,3.5457 -0.0494,4.0382 -1.877194,4.2844 l -1.037397,0.1478 c -0.345798,0.2462 -0.246999,1.0834 0.0988,1.2311 1.383195,-0.099 2.865191,-0.1477 4.643585,-0.1477 1.728995,0 3.161589,0.049 4.643579,0.1477 0.34581,-0.1477 0.4446,-0.9849 0.0988,-1.2311 l -1.03739,-0.1478 c -1.778395,-0.2462 -1.877195,-0.7387 -1.877195,-4.2844 v -8.86437 c 0,-2.01911 0.0988,-4.38294 0.1976,-6.10655 -0.0494,-0.19699 -0.246999,-0.29548 -0.493999,-0.29548 -1.136196,0.7387 -3.951987,2.01909 -5.088183,2.41307 -0.246999,0.14774 -0.246999,0.68945 -0.0494,0.88643 l 0.444598,0.29548 c 1.333796,0.88644 1.333796,1.13267 1.333796,3.05327 z m 1.630194,-25.21416 c -1.481995,0 -2.667591,1.03417 -2.667591,2.6593 0,1.32965 0.987997,2.46231 2.519392,2.46231 1.383196,0 2.618192,-0.78794 2.618192,-2.56081 0,-1.37889 -0.987997,-2.5608 -2.469993,-2.5608 z m -18.032485,25.21416 c 0,3.5457 -0.0494,3.9889 -1.877194,4.2844 l -0.938597,0.1478 c -0.345799,0.2462 -0.246999,1.0834 0.0988,1.2311 1.284396,-0.099 2.766391,-0.1477 4.544785,-0.1477 1.728995,0 3.16159,0.049 5.483382,0.1477 0.3458,-0.1477 0.444599,-0.9849 0.0988,-1.2311 l -1.778394,-0.1478 c -1.877194,-0.1478 -1.975993,-0.7387 -1.975993,-4.2844 v -6.69754 c 0,-1.67437 0.148199,-3.10252 0.642197,-3.79197 0.395198,-0.54171 0.987997,-0.98493 1.778394,-0.98493 0.691598,0 1.432595,0.29548 2.173593,0.78795 0.345799,0.19698 0.592798,0.34472 1.086797,0.34472 0.790397,0 2.124193,-0.6402 2.124193,-2.26533 0,-1.18191 -0.987996,-1.96986 -2.222992,-1.96986 -1.827795,0 -3.704989,1.52665 -5.433983,2.95479 -0.0988,-0.0492 -0.148199,-0.19699 -0.148199,-0.44322 v -2.85629 c 0,-0.19698 -0.148201,-0.29548 -0.3952,-0.34472 -1.234996,0.7387 -3.853188,2.01909 -4.989383,2.41307 -0.247,0.14774 -0.247,0.68945 -0.0494,0.88643 l 0.444598,0.29548 c 1.333796,0.88644 1.333796,1.13267 1.333796,3.05327 z m -12.735897,0 c 0,3.5457 -0.0494,4.0382 -1.877193,4.2844 l -1.037397,0.1478 c -0.345799,0.2462 -0.246999,1.0834 0.0988,1.2311 1.383196,-0.099 2.865191,-0.1477 4.643585,-0.1477 1.728995,0 3.161591,0.049 4.643586,0.1477 0.345799,-0.1477 0.444598,-0.9849 0.0988,-1.2311 l -1.037397,-0.1478 c -1.778394,-0.2462 -1.877194,-0.7387 -1.877194,-4.2844 v -8.86437 c 0,-2.01911 0.0988,-4.38294 0.197599,-6.10655 -0.0494,-0.19699 -0.246999,-0.29548 -0.493999,-0.29548 -1.136195,0.7387 -3.951987,2.01909 -5.088183,2.41307 -0.247,0.14774 -0.247,0.68945 -0.0494,0.88643 l 0.444599,0.29548 c 1.333795,0.88644 1.333795,1.13267 1.333795,3.05327 z m 1.630195,-25.21416 c -1.481995,0 -2.667592,1.03417 -2.667592,2.6593 0,1.32965 0.987998,2.46231 2.519393,2.46231 1.383195,0 2.618191,-0.78794 2.618191,-2.56081 0,-1.37889 -0.987997,-2.5608 -2.469992,-2.5608 z M 57.62296,996.47559 c 2.074793,0 2.766391,-0.0492 2.914591,-0.34473 0.0988,-0.19698 0.197599,-0.59095 0.197599,-1.2804 0,-2.95478 -2.766391,-5.86032 -7.014778,-5.86032 -5.92798,0 -9.929368,5.07238 -9.929368,11.12966 0,2.1668 0.592798,4.4814 2.074793,6.4021 1.432596,1.8713 3.951988,3.2502 7.162978,3.2502 2.568791,0 6.12558,-1.2312 7.755775,-4.5799 -0.0494,-0.4432 -0.395199,-0.7387 -0.889197,-0.591 -1.531396,1.9207 -2.914592,2.4131 -4.544786,2.4131 -5.285783,0 -8.200374,-4.2352 -8.200374,-9.20905 0,-1.23117 0.0494,-1.32966 1.333796,-1.32966 z m -9.583569,-1.47739 c -0.345799,0 -0.345799,-0.14774 -0.345799,-0.24623 0.0494,-1.62513 2.568792,-4.28444 5.483382,-4.28444 2.865191,0 3.803787,1.72363 3.803787,3.10253 0,0.64019 -0.148199,0.83719 -0.296398,0.93567 -0.395199,0.29548 -1.481996,0.49247 -5.137584,0.49247 z"
         style="font-style:normal;font-variant:normal;font-weight:normal;font-stretch:normal;font-size:49.32303619px;line-height:1.25;font-family:'Adobe Garamond Pro';-inkscape-font-specification:'Adobe Garamond Pro';letter-spacing:0px;word-spacing:0px;fill:#334553;fill-opacity:1;stroke:none;stroke-width:0.38834366px;stroke-linecap:butt;stroke-linejoin:miter;stroke-opacity:1"
         id="path4502"
         inkscape:connector-curvature="0" />
    </g>
  </g>
</svg>
