<?xml version="1.0" encoding="UTF-8" standalone="no"?>
<!-- Created with Inkscape (http://www.inkscape.org/) -->

<svg
   xmlns:dc="http://purl.org/dc/elements/1.1/"
   xmlns:cc="http://creativecommons.org/ns#"
   xmlns:rdf="http://www.w3.org/1999/02/22-rdf-syntax-ns#"
   xmlns:svg="http://www.w3.org/2000/svg"
   xmlns="http://www.w3.org/2000/svg"
   xmlns:sodipodi="http://sodipodi.sourceforge.net/DTD/sodipodi-0.dtd"
   xmlns:inkscape="http://www.inkscape.org/namespaces/inkscape"
   width="300"
   height="65"
   viewBox="0 0 300 65"
   version="1.1"
   id="svg8"
   inkscape:version="0.92.2 (5c3e80d, 2017-08-06)"
   sodipodi:docname="seiring1--dark.svg">
  <defs
     id="defs2" />
  <sodipodi:namedview
     id="base"
     pagecolor="#ffffff"
     bordercolor="#666666"
     borderopacity="1.0"
     inkscape:pageopacity="0.0"
     inkscape:pageshadow="2"
     inkscape:zoom="1.4"
     inkscape:cx="146.81795"
     inkscape:cy="5.126341"
     inkscape:document-units="px"
     inkscape:current-layer="layer1"
     showgrid="false"
     units="px"
     inkscape:window-width="1280"
     inkscape:window-height="962"
     inkscape:window-x="-8"
     inkscape:window-y="-8"
     inkscape:window-maximized="1" />
  <metadata
     id="metadata5">
    <rdf:RDF>
      <cc:Work
         rdf:about="">
        <dc:format>image/svg+xml</dc:format>
        <dc:type
           rdf:resource="http://purl.org/dc/dcmitype/StillImage" />
        <dc:title></dc:title>
      </cc:Work>
    </rdf:RDF>
  </metadata>
  <g
     inkscape:label="Layer 1"
     inkscape:groupmode="layer"
     id="layer1"
     transform="translate(0,-268.77082)">
    <path
       inkscape:connector-curvature="0"
       id="path4578"
       style="font-style:normal;font-variant:normal;font-weight:normal;font-stretch:normal;font-size:40.01300049px;line-height:1.25;font-family:'Century Gothic';-inkscape-font-specification:'Century Gothic';letter-spacing:0px;word-spacing:0px;fill:#2196f3;fill-opacity:1;stroke:none;stroke-width:0.75048804"
       d="m 161.24379,288.15194 1.95376,2.07099 q -1.87561,1.66069 -3.38,2.87202 0.99642,1.05503 2.87203,2.95018 1.48485,1.48486 2.55942,2.73527 h -4.00521 l -3.6926,-3.84891 q -3.71215,2.81341 -5.95897,3.6926 -2.24682,0.8792 -4.74764,0.8792 -3.32139,0 -5.33376,-1.89515 -2.01237,-1.91468 -2.01237,-4.76717 0,-2.14914 1.34809,-4.29828 1.36763,-2.16867 5.54868,-5.47052 -2.36405,-2.85249 -3.04787,-4.20059 -0.66427,-1.36763 -0.66427,-2.5985 0,-2.14913 1.66069,-3.55584 1.91469,-1.64116 4.76717,-1.64116 1.79746,0 3.28232,0.72289 1.48486,0.72289 2.26636,1.95376 0.78151,1.21133 0.78151,2.57897 0,1.44578 -1.01596,3.08694 -1.01595,1.62162 -4.00521,4.1615 l 4.35689,4.5718 2.98925,2.98925 q 2.14914,-1.79745 3.47769,-2.98925 z m -12.60175,-6.72093 q 2.09053,-1.62162 3.14556,-3.18463 0.74242,-1.11364 0.74242,-1.9733 0,-0.99641 -0.97688,-1.71931 -0.95734,-0.72289 -2.55942,-0.72289 -1.52393,0 -2.48128,0.74243 -0.95734,0.74243 -0.95734,1.75839 0,0.7815 0.39075,1.46532 0.95735,1.66069 2.69619,3.63399 z m -0.35167,3.80983 q -3.65354,2.7548 -4.78672,4.39596 -1.13318,1.62162 -1.13318,3.00879 0,1.64116 1.38717,2.9111 1.38717,1.25041 3.39954,1.25041 1.52394,0 2.98926,-0.62521 2.30543,-0.99641 5.45099,-3.24324 l -4.68903,-4.80625 q -1.17225,-1.23086 -2.61803,-2.89156 z" />
    <path
       id="path4561"
       style="font-style:normal;font-variant:normal;font-weight:normal;font-stretch:normal;font-size:26.38267136px;line-height:1.25;font-family:'Century Gothic';-inkscape-font-specification:'Century Gothic';letter-spacing:0px;word-spacing:0px;fill:#ffffff;fill-opacity:1;stroke:none;stroke-width:0.76103854"
       d="m 289.14034,314.34453 h 10.85967 v 1.86791 h -8.96599 v 5.9258 h 8.88869 v 1.85503 h -8.88869 v 7.43301 h 8.88869 v 1.86791 h -10.78237 z m -20.444,1.84215 v -1.84215 h 10.39591 v 1.84215 h -4.22535 v 17.10751 h -1.93233 v -17.10751 z m -17.64856,-1.84215 h 1.90656 v 17.12039 h 7.27842 v 1.82927 h -9.18498 z m -19.10426,0 8.83717,18.94966 h -2.03538 l -2.97578,-6.23497 h -8.1673 l -2.96289,6.23497 h -2.11268 l 8.95311,-18.94966 z m -0.23187,4.01923 -3.25919,6.86619 h 6.47973 z m -2.67949,-8.46358 q 0.61834,0 1.05633,0.43799 0.438,0.438 0.438,1.05634 0,0.61834 -0.438,1.05634 -0.43799,0.43799 -1.05633,0.43799 -0.61835,0 -1.05634,-0.43799 -0.438,-0.438 -0.438,-1.05634 0,-0.61834 0.438,-1.05634 0.43799,-0.43799 1.05634,-0.43799 z m 5.25592,0 q 0.61834,0 1.05634,0.43799 0.43799,0.438 0.43799,1.05634 0,0.61834 -0.43799,1.05634 -0.438,0.43799 -1.05634,0.43799 -0.61835,0 -1.05634,-0.43799 -0.43799,-0.438 -0.43799,-1.05634 0,-0.61834 0.43799,-1.05634 0.43799,-0.43799 1.05634,-0.43799 z m -43.82511,4.44435 h 1.9452 l 3.85177,13.65509 5.43627,-13.65509 h 0.38647 l 5.37186,13.65509 3.92906,-13.65509 h 1.93232 l -5.43627,18.94966 h -0.3607 l -5.61662,-14.33785 -5.73257,14.33785 h -0.3607 z m -25.76434,18.94966 v -18.94966 h 0.41223 l 12.59876,14.50531 v -14.50531 h 1.86791 v 18.94966 h -0.42511 l -12.4957,-14.32497 v 14.32497 z m -19.11712,-18.94966 8.83716,18.94966 h -2.03538 l -2.97578,-6.23497 h -8.16729 l -2.9629,6.23497 h -2.11267 l 8.9531,-18.94966 z m -0.23188,4.01923 -3.25919,6.86619 h 6.47973 z m -29.92527,11.40072 1.61027,-0.96617 q 1.70045,3.13037 3.92906,3.13037 0.95328,0 1.79062,-0.43799 0.83734,-0.45088 1.27534,-1.19804 0.43799,-0.74717 0.43799,-1.58451 0,-0.95328 -0.64411,-1.86791 -0.88887,-1.26246 -3.2463,-3.0402 -2.37032,-1.79062 -2.95002,-2.58931 -1.00481,-1.33975 -1.00481,-2.89849 0,-1.23668 0.59258,-2.25438 0.59258,-1.01769 1.6618,-1.59738 1.0821,-0.59258 2.34455,-0.59258 1.33975,0 2.49914,0.66987 1.17228,0.65699 2.47338,2.43473 l -1.54586,1.17227 q -1.06922,-1.41703 -1.82927,-1.86791 -0.74716,-0.45087 -1.63603,-0.45087 -1.14651,0 -1.8808,0.69563 -0.7214,0.69564 -0.7214,1.71333 0,0.61834 0.25764,1.19804 0.25765,0.5797 0.9404,1.26245 0.37359,0.3607 2.44761,1.89368 2.4605,1.81639 3.37513,3.23342 0.91463,1.41704 0.91463,2.84696 0,2.06115 -1.57162,3.58124 -1.55874,1.5201 -3.80024,1.5201 -1.72621,0 -3.13036,-0.91463 -1.40416,-0.92752 -2.58932,-3.09172 z m -18.473022,-13.5778 v -1.84215 h 10.395902 v 1.84215 h -4.22535 v 17.10751 h -1.93232 v -17.10751 z m -23.497072,-1.84215 h 1.90656 v 7.94829 h 9.635859 v -7.94829 h 1.90656 v 18.94966 h -1.90656 v -9.14634 h -9.635859 v 9.14634 h -1.90656 z m -11.078658,3.51683 -1.494331,1.14651 q -1.236688,-1.61027 -2.97578,-2.43473 -1.72621,-0.83734 -3.800239,-0.83734 -2.26726,0 -4.199585,1.09498 -1.932325,1.08211 -3.001544,2.92426 -1.056338,1.82926 -1.056338,4.12229 0,3.4653 2.370319,5.78409 2.3832,2.31879 6.003088,2.31879 3.980588,0 6.660079,-3.11748 l 1.494331,1.13363 q -1.417038,1.8035 -3.542595,2.79543 -2.112675,0.97904 -4.727755,0.97904 -4.972515,0 -7.845237,-3.31072 -2.408965,-2.79543 -2.408965,-6.75025 0,-4.16094 2.911369,-6.99502 2.924251,-2.84695 7.317069,-2.84695 2.653726,0 4.792165,1.05633 2.138439,1.04346 3.503949,2.93714 z M 23.252476,314.34453 H 34.11214 v 1.86791 h -8.965986 v 5.9258 h 8.888693 v 1.85503 h -8.888693 v 7.43301 h 8.888693 v 1.86791 H 23.252476 Z m -23.2523048285,0 H 3.7746451 q 3.1561302,0 4.2768784,0.25764 1.6875635,0.38646 2.7439005,1.6618 1.056338,1.26245 1.056338,3.11748 0,1.54586 -0.734284,2.71814 -0.721401,1.17228 -2.0740279,1.77774 -1.3526272,0.59258 -3.7358275,0.60546 l 6.8146644,8.8114 H 9.7777335 L 2.975951,324.48279 H 1.8938492 v 8.8114 H 1.711715e-4 Z M 1.8938492,316.19956 v 6.44108 l 3.2591875,0.0258 q 1.893678,0 2.7954295,-0.3607 0.9146336,-0.3607 1.417038,-1.14651 0.5152866,-0.79869 0.5152866,-1.77774 0,-0.95328 -0.5152866,-1.72621 Q 8.8502177,316.86947 8.012877,316.53453 7.1755364,316.1996 5.2303297,316.1996 Z M 297.24502,277.52349 h 2.7548 v 16.9391 q 0,4.47411 -0.78151,6.54509 -1.07456,2.93064 -3.73168,4.51319 -2.65711,1.58254 -6.38879,1.58254 -2.73527,0 -4.92348,-0.7815 -2.16867,-0.76197 -3.5363,-2.07099 -1.36763,-1.28948 -2.52035,-3.79029 h 2.96971 q 1.21133,2.11006 3.12602,3.12601 1.91468,1.01596 4.74764,1.01596 2.79387,0 4.70856,-1.05503 1.93422,-1.03549 2.7548,-2.61804 0.82058,-1.58254 0.82058,-5.09931 v -1.09411 q -1.54347,1.95376 -3.77076,3.00879 -2.22729,1.0355 -4.7281,1.0355 -2.93064,0 -5.5096,-1.44579 -2.57896,-1.46532 -3.98567,-3.92705 -1.40671,-2.46174 -1.40671,-5.41192 0,-2.95018 1.46532,-5.49006 1.46532,-2.55943 4.04428,-4.04429 2.59851,-1.48485 5.47053,-1.48485 2.38359,0 4.43504,0.99641 2.07098,0.97688 3.98567,3.24325 z m -8.06903,2.09052 q -2.32498,0 -4.31781,1.13318 -1.99284,1.11365 -3.12602,3.10648 -1.13318,1.9733 -1.13318,4.27873 0,3.49723 2.34452,5.78313 2.34451,2.2859 6.07619,2.2859 3.77075,0 6.05665,-2.26636 2.30544,-2.26636 2.30544,-5.95897 0,-2.40312 -1.05503,-4.27873 -1.05503,-1.89515 -2.98925,-2.98925 -1.93422,-1.09411 -4.16151,-1.09411 z m -34.62062,-2.09052 h 2.73526 v 3.80983 q 1.64116,-2.18821 3.634,-3.26278 1.99283,-1.0941 4.33734,-1.0941 2.38359,0 4.22012,1.21133 1.85608,1.21133 2.73527,3.26278 0.87919,2.05144 0.87919,6.38879 v 10.94106 h -2.71573 v -10.14002 q 0,-3.67307 -0.3126,-4.90393 -0.48844,-2.11007 -1.83653,-3.1651 -1.3481,-1.07456 -3.51677,-1.07456 -2.48128,0 -4.45457,1.64115 -1.95376,1.64116 -2.57897,4.06382 -0.39075,1.58255 -0.39075,5.78313 v 7.79551 h -2.73526 z m -7.09216,-8.75284 q 0.93781,0 1.60208,0.66427 0.66428,0.66428 0.66428,1.60209 0,0.91826 -0.66428,1.58254 -0.66427,0.66428 -1.60208,0.66428 -0.91827,0 -1.58254,-0.66428 -0.66428,-0.66428 -0.66428,-1.58254 0,-0.93781 0.66428,-1.60209 0.66427,-0.66427 1.58254,-0.66427 z m -1.36763,8.75284 h 2.7548 v 21.25691 h -2.7548 z m -12.66036,0 h 2.79388 v 3.10648 q 1.2504,-1.83654 2.63757,-2.73527 1.38717,-0.91826 2.89157,-0.91826 1.13318,0 2.42266,0.72289 l -1.42625,2.30543 q -0.85965,-0.37121 -1.44578,-0.37121 -1.36763,0 -2.63757,1.13318 -1.26995,1.11364 -1.93423,3.47769 -0.50797,1.817 -0.50797,7.34614 v 7.18984 h -2.79388 z m -6.05665,-8.75284 q 0.93781,0 1.60208,0.66427 0.66428,0.66428 0.66428,1.60209 0,0.91826 -0.66428,1.58254 -0.66427,0.66428 -1.60208,0.66428 -0.91827,0 -1.58254,-0.66428 -0.66428,-0.66428 -0.66428,-1.58254 0,-0.93781 0.66428,-1.60209 0.66427,-0.66427 1.58254,-0.66427 z m -1.36763,8.75284 h 2.7548 v 21.25691 h -2.7548 z m -7.71735,14.20383 2.30544,1.21133 q -1.13318,2.22729 -2.61804,3.59492 -1.48486,1.36763 -3.34093,2.09052 -1.85607,0.70336 -4.20058,0.70336 -5.19701,0 -8.12765,-3.39954 -2.93063,-3.41908 -2.93063,-7.71735 0,-4.04429 2.48127,-7.20938 3.14555,-4.02474 8.4207,-4.02474 5.43146,0 8.6747,4.12243 2.30543,2.9111 2.34451,7.26799 h -19.10777 q 0.0781,3.71214 2.36405,6.09573 2.2859,2.36405 5.64636,2.36405 1.62162,0 3.14556,-0.56659 1.54347,-0.56659 2.61804,-1.5044 1.07456,-0.9378 2.32497,-3.02833 z m 0,-5.72451 q -0.54705,-2.18821 -1.60208,-3.49723 -1.0355,-1.30902 -2.7548,-2.11006 -1.71931,-0.80105 -3.61446,-0.80105 -3.12602,0 -5.37284,2.01238 -1.64116,1.46532 -2.48127,4.39596 z m -40.34515,7.42428 2.4422,-1.46532 q 2.57896,4.74764 5.95897,4.74764 1.44578,0 2.71572,-0.66428 1.26995,-0.68381 1.93423,-1.81699 0.66427,-1.13319 0.66427,-2.40313 0,-1.44578 -0.97688,-2.83295 -1.34809,-1.91469 -4.92347,-4.61087 -3.59492,-2.71573 -4.47411,-3.92706 -1.52393,-2.03191 -1.52393,-4.39596 0,-1.87561 0.89873,-3.41908 0.89873,-1.54347 2.52035,-2.42266 1.64115,-0.89873 3.55584,-0.89873 2.03191,0 3.79029,1.01595 1.77792,0.99642 3.75122,3.69261 l -2.34451,1.77792 q -1.62162,-2.14914 -2.77434,-2.83295 -1.13318,-0.68382 -2.48127,-0.68382 -1.73885,0 -2.85249,1.05503 -1.09411,1.05503 -1.09411,2.5985 0,0.93781 0.39075,1.817 0.39076,0.87919 1.42625,1.91468 0.56659,0.54706 3.71214,2.87203 3.73168,2.7548 5.11885,4.90394 1.38717,2.14913 1.38717,4.31781 0,3.12601 -2.38359,5.43145 -2.36404,2.30544 -5.76359,2.30544 -2.61803,0 -4.74763,-1.38717 -2.1296,-1.40671 -3.92706,-4.68903 z m -58.65186,-15.9036 h 2.7548 v 16.9391 q 0,4.47411 -0.78151,6.54509 -1.07456,2.93064 -3.73168,4.51319 -2.65711,1.58254 -6.38879,1.58254 -2.73527,0 -4.92348,-0.7815 -2.16867,-0.76197 -3.5363,-2.07099 -1.36763,-1.28948 -2.52035,-3.79029 h 2.96971 q 1.21133,2.11006 3.12602,3.12601 1.91468,1.01596 4.74763,1.01596 2.79388,0 4.70857,-1.05503 1.93422,-1.03549 2.7548,-2.61804 0.82058,-1.58254 0.82058,-5.09931 v -1.09411 q -1.54347,1.95376 -3.77076,3.00879 -2.22729,1.0355 -4.7281,1.0355 -2.93064,0 -5.5096,-1.44579 -2.57896,-1.46532 -3.98567,-3.92705 -1.406708,-2.46174 -1.406708,-5.41192 0,-2.95018 1.465318,-5.49006 1.46532,-2.55943 4.04428,-4.04429 2.5985,-1.48485 5.47053,-1.48485 2.38359,0 4.43504,0.99641 2.07098,0.97688 3.98567,3.24325 z m -8.06903,2.09052 q -2.32498,0 -4.31781,1.13318 -1.99284,1.11365 -3.12602,3.10648 -1.13318,1.9733 -1.13318,4.27873 0,3.49723 2.34451,5.78313 2.34452,2.2859 6.0762,2.2859 3.77075,0 6.05665,-2.26636 2.30544,-2.26636 2.30544,-5.95897 0,-2.40312 -1.05503,-4.27873 -1.05503,-1.89515 -2.98925,-2.98925 -1.93423,-1.09411 -4.16151,-1.09411 z m -34.62063,-2.09052 h 2.735264 v 3.80983 q 1.641158,-2.18821 3.633993,-3.26278 1.992835,-1.0941 4.337347,-1.0941 2.383587,0 4.220121,1.21133 1.856072,1.21133 2.735264,3.26278 0.879192,2.05144 0.879192,6.38879 v 10.94106 h -2.715726 v -10.14002 q 0,-3.67307 -0.312602,-4.90393 -0.48844,-2.11007 -1.836534,-3.1651 -1.348094,-1.07456 -3.516768,-1.07456 -2.481275,0 -4.454572,1.64115 -1.95376,1.64116 -2.578963,4.06382 -0.390752,1.58255 -0.390752,5.78313 v 7.79551 H 76.60692 Z m -7.092149,-8.75284 q 0.937804,0 1.602083,0.66427 0.664278,0.66428 0.664278,1.60209 0,0.91826 -0.664278,1.58254 -0.664279,0.66428 -1.602083,0.66428 -0.918267,0 -1.582546,-0.66428 -0.664278,-0.66428 -0.664278,-1.58254 0,-0.93781 0.664278,-1.60209 0.664279,-0.66427 1.582546,-0.66427 z m -1.367632,8.75284 h 2.754801 v 21.25691 h -2.754801 z m -12.66036,0 h 2.793877 v 3.10648 q 1.250406,-1.83654 2.637576,-2.73527 1.387169,-0.91826 2.891564,-0.91826 1.133181,0 2.422662,0.72289 l -1.426244,2.30543 q -0.859655,-0.37121 -1.445783,-0.37121 -1.367631,0 -2.637575,1.13318 -1.269944,1.11364 -1.934222,3.47769 -0.507978,1.817 -0.507978,7.34614 v 7.18984 h -2.793877 z m -6.056656,-8.75284 q 0.937804,0 1.602083,0.66427 0.664278,0.66428 0.664278,1.60209 0,0.91826 -0.664278,1.58254 -0.664279,0.66428 -1.602083,0.66428 -0.918268,0 -1.582546,-0.66428 -0.664278,-0.66428 -0.664278,-1.58254 0,-0.93781 0.664278,-1.60209 0.664278,-0.66427 1.582546,-0.66427 z m -1.367632,8.75284 h 2.754801 v 21.25691 h -2.754801 z m -7.717351,14.20383 2.305436,1.21133 q -1.13318,2.22729 -2.618038,3.59492 -1.484857,1.36763 -3.340929,2.09052 -1.856072,0.70336 -4.200584,0.70336 -5.197001,0 -8.12764,-3.39954 -2.93064,-3.41908 -2.93064,-7.71735 0,-4.04429 2.481275,-7.20938 3.145553,-4.02474 8.420705,-4.02474 5.431452,0 8.674693,4.12243 2.305437,2.9111 2.344512,7.26799 H 24.246159 q 0.07815,3.71214 2.364049,6.09573 2.285899,2.36405 5.646366,2.36405 1.621621,0 3.145553,-0.56659 1.543471,-0.56659 2.618039,-1.5044 1.074567,-0.9378 2.324974,-3.02833 z m 0,-5.72451 q -0.547053,-2.18821 -1.602083,-3.49723 -1.035493,-1.30902 -2.754802,-2.11006 -1.719308,-0.80105 -3.614455,-0.80105 -3.126016,0 -5.37284,2.01238 -1.641158,1.46532 -2.481275,4.39596 z M -5.6624413e-7,293.42709 2.4421992,291.96177 q 2.5789629,4.74764 5.9589673,4.74764 1.4457823,0 2.7157265,-0.66428 1.269943,-0.68381 1.934222,-1.81699 0.664278,-1.13319 0.664278,-2.40313 0,-1.44578 -0.97688,-2.83295 -1.348094,-1.91469 -4.9234744,-4.61087 -3.594918,-2.71573 -4.4741099,-3.92706 -1.5239327,-2.03191 -1.5239327,-4.39596 0,-1.87561 0.8987295,-3.41908 0.8987295,-1.54347 2.5203502,-2.42266 1.6411582,-0.89873 3.5558428,-0.89873 2.0319105,0 3.7902935,1.01595 1.777922,0.99642 3.751219,3.69261 l -2.344511,1.77792 q -1.621621,-2.14914 -2.774339,-2.83295 -1.133181,-0.68382 -2.4812753,-0.68382 -1.7388462,0 -2.8524893,1.05503 -1.0941055,1.05503 -1.0941055,2.5985 0,0.93781 0.390752,1.817 0.3907519,0.87919 1.4262446,1.91468 0.5665904,0.54706 3.7121435,2.87203 3.731681,2.7548 5.118851,4.90394 1.387169,2.14913 1.387169,4.31781 0,3.12601 -2.383587,5.43145 -2.364049,2.30544 -5.7635911,2.30544 -2.6180381,0 -4.7476363,-1.38717 Q 1.7974584,296.70941 -5.6624413e-7,293.42709 Z" />
  </g>
</svg>
