<?xml version="1.0" encoding="UTF-8" standalone="no"?>
<!-- Created with Inkscape (http://www.inkscape.org/) -->

<svg
   xmlns:dc="http://purl.org/dc/elements/1.1/"
   xmlns:cc="http://creativecommons.org/ns#"
   xmlns:rdf="http://www.w3.org/1999/02/22-rdf-syntax-ns#"
   xmlns:svg="http://www.w3.org/2000/svg"
   xmlns="http://www.w3.org/2000/svg"
   xmlns:sodipodi="http://sodipodi.sourceforge.net/DTD/sodipodi-0.dtd"
   xmlns:inkscape="http://www.inkscape.org/namespaces/inkscape"
   width="230"
   height="50"
   viewBox="0 0 230 50"
   version="1.1"
   id="svg8"
   inkscape:version="0.92.2 (5c3e80d, 2017-08-06)"
   sodipodi:docname="logo.svg">
  <defs
     id="defs2" />
  <sodipodi:namedview
     id="base"
     pagecolor="#ffffff"
     bordercolor="#666666"
     borderopacity="1.0"
     inkscape:pageopacity="0.0"
     inkscape:pageshadow="2"
     inkscape:zoom="3.959798"
     inkscape:cx="99.683379"
     inkscape:cy="16.145988"
     inkscape:document-units="px"
     inkscape:current-layer="layer1"
     showgrid="false"
     units="px"
     inkscape:window-width="1920"
     inkscape:window-height="1016"
     inkscape:window-x="2560"
     inkscape:window-y="807"
     inkscape:window-maximized="1" />
  <metadata
     id="metadata5">
    <rdf:RDF>
      <cc:Work
         rdf:about="">
        <dc:format>image/svg+xml</dc:format>
        <dc:type
           rdf:resource="http://purl.org/dc/dcmitype/StillImage" />
        <dc:title></dc:title>
      </cc:Work>
    </rdf:RDF>
  </metadata>
  <g
     inkscape:label="Layer 1"
     inkscape:groupmode="layer"
     id="layer1"
     transform="translate(0,-283.77082)">
    <path
       inkscape:connector-curvature="0"
       id="path4578"
       style="font-style:normal;font-variant:normal;font-weight:normal;font-stretch:normal;font-size:40.01300049px;line-height:1.25;font-family:'Century Gothic';-inkscape-font-specification:'Century Gothic';letter-spacing:0px;word-spacing:0px;fill:#2196f3;fill-opacity:1;stroke:none;stroke-width:0.57633477"
       d="m 123.62027,298.67953 1.49776,1.59294 q -1.43785,1.27755 -2.59133,2.20927 0.76407,0.81179 2.20192,2.26939 1.1385,1.142 1.96226,2.10408 h -3.07061 l -2.83097,-2.96066 q -2.84617,2.16419 -4.56859,2.84043 -1.72263,0.67626 -3.63998,0.67626 -2.5464,0 -4.08909,-1.45769 -1.54291,-1.47292 -1.54291,-3.66716 0,-1.65326 1.03366,-3.30631 1.04843,-1.66827 4.25385,-4.20816 -1.81229,-2.19425 -2.33671,-3.23116 -0.50924,-1.05194 -0.50924,-1.99889 0,-1.65304 1.2733,-2.73524 1.46782,-1.26233 3.65475,-1.26233 1.37815,0 2.51644,0.55603 1.13866,0.55602 1.73762,1.50277 0.5991,0.93191 0.5991,1.98386 0,1.11225 -0.77883,2.37458 -0.77904,1.2475 -3.07083,3.2011 l 3.34043,3.51689 2.29178,2.29944 q 1.64754,-1.38275 2.66622,-2.29944 z m -9.6614,-5.16994 q 1.60282,-1.2475 2.41161,-2.44972 0.56915,-0.85677 0.56915,-1.518 0,-0.76641 -0.74888,-1.32244 -0.7339,-0.5563 -1.96227,-0.5563 -1.16826,0 -1.90238,0.57133 -0.7339,0.57105 -0.7339,1.3525 0,0.60111 0.29955,1.12728 0.73392,1.27735 2.06712,2.79535 z m -0.26958,2.93061 q -2.80104,2.11911 -3.66994,3.38144 -0.86871,1.2475 -0.86871,2.31447 0,1.26253 1.06373,2.23933 1.06329,0.96178 2.60629,0.96178 1.16817,0 2.2915,-0.4809 1.76756,-0.76641 4.17916,-2.4948 l -3.59483,-3.69702 q -0.89886,-0.94694 -2.0072,-2.2243 z" />
    <path
       id="path4561"
       style="font-style:normal;font-variant:normal;font-weight:normal;font-stretch:normal;font-size:26.38267136px;line-height:1.25;font-family:'Century Gothic';-inkscape-font-specification:'Century Gothic';letter-spacing:0px;word-spacing:0px;fill:#334553;fill-opacity:1;stroke:none;stroke-width:0.5844366"
       d="M 221.67419,318.82749 H 230 v 1.43698 h -6.87405 v 4.55816 h 6.81477 v 1.42706 h -6.81477 v 5.71759 h 6.81477 v 1.43697 h -8.26653 z m -15.67369,1.41715 v -1.41715 h 7.97013 v 1.41715 h -3.23943 v 13.15961 h -1.48138 v -13.15961 z m -13.53053,-1.41715 h 1.46165 V 331.997 h 5.58016 v 1.40725 h -7.04181 z m -14.64655,0 6.77504,14.57676 h -1.56044 l -2.28146,-4.79627 h -6.2615 l -2.27158,4.79627 h -1.61971 l 6.86396,-14.57676 z m -0.17784,3.09185 -2.49883,5.28159 h 4.96781 z m -2.05424,-6.51042 q 0.47405,0 0.80975,0.33684 0.33596,0.33685 0.33596,0.81277 0,0.47551 -0.33596,0.81236 -0.3357,0.33684 -0.80975,0.33684 -0.47388,0 -0.80995,-0.33684 -0.33572,-0.33685 -0.33572,-0.81236 0,-0.47592 0.33572,-0.81277 0.33607,-0.33684 0.80995,-0.33684 z m 4.02942,0 q 0.47404,0 0.80997,0.33684 0.33571,0.33685 0.33571,0.81277 0,0.47551 -0.33571,0.81236 -0.33593,0.33684 -0.80997,0.33684 -0.47404,0 -0.80975,-0.33684 -0.33592,-0.33685 -0.33592,-0.81236 0,-0.47592 0.33592,-0.81277 0.33571,-0.33684 0.80975,-0.33684 z m -33.59918,3.41857 h 1.49127 l 2.95311,10.50393 4.16774,-10.50393 h 0.2964 l 4.11834,10.50393 3.01218,-10.50393 h 1.48159 l -4.16793,14.57676 h -0.27645 l -4.30606,-11.02912 -4.39497,11.02912 h -0.27665 z m -19.75271,14.57676 v -14.57676 h 0.31616 l 9.659,11.15799 v -11.15799 h 1.43198 v 14.57676 h -0.32583 l -9.58015,-11.01921 v 11.01921 z m -14.65642,-14.57676 6.77523,14.57676 h -1.56041 l -2.28149,-4.79627 h -6.26168 l -2.2716,4.79627 h -1.61972 l 6.86417,-14.57676 z m -0.17786,3.09185 -2.49862,5.28159 h 4.96782 z m -22.942618,8.76976 1.234556,-0.74328 q 1.303674,2.40806 3.01226,2.40806 0.730859,0 1.372812,-0.33704 0.64196,-0.34675 0.977764,-0.9215 0.335794,-0.57476 0.335794,-1.2189 0,-0.73336 -0.49382,-1.43678 -0.681453,-0.97107 -2.488823,-2.33866 -1.817255,-1.3773 -2.261689,-1.9917 -0.77034,-1.03055 -0.77034,-2.22962 0,-0.95155 0.454299,-1.73417 0.454317,-0.78292 1.274056,-1.22879 0.829614,-0.4558 1.797486,-0.4558 1.027141,0 1.916008,0.51527 0.898742,0.50536 1.896258,1.87295 l -1.185158,0.90167 q -0.819731,-1.09002 -1.402449,-1.43678 -0.572814,-0.34694 -1.254296,-0.34694 -0.878973,0 -1.44193,0.53509 -0.553082,0.5351 -0.553082,1.31802 0,0.47563 0.197518,0.92151 0.197547,0.44588 0.720983,0.97107 0.286417,0.27756 1.876508,1.45681 1.886373,1.39712 2.587587,2.48714 0.701214,1.09003 0.701214,2.18997 0,1.58547 -1.20491,2.7548 -1.195034,1.16933 -2.913505,1.16933 -1.323435,0 -2.399945,-0.70362 -1.076518,-0.71333 -1.985156,-2.37811 z M 74.329323,320.24464 v -1.41715 h 7.970199 v 1.41715 h -3.239423 v 13.15961 H 77.57865 v -13.15961 z m -18.014407,-1.41715 h 1.461691 v 6.11409 h 7.387503 v -6.11409 h 1.461692 v 14.57676 H 65.16411 v -7.0356 h -7.387503 v 7.0356 h -1.461691 z m -8.493636,2.70524 -1.145654,0.88206 q -0.948114,-1.23872 -2.281428,-1.87295 -1.323433,-0.64415 -2.913506,-0.64415 -1.73823,0 -3.219683,0.8424 -1.481453,0.83229 -2.301187,2.24945 -0.809857,1.40703 -0.809857,3.17094 0,2.66558 1.817221,4.44932 1.827141,1.78373 4.602386,1.78373 3.051784,0 5.106054,-2.39814 l 1.145654,0.87194 q -1.086393,1.38742 -2.715986,2.15032 -1.619711,0.75318 -3.624602,0.75318 -3.812259,0 -6.014688,-2.54663 -1.846871,-2.15032 -1.846871,-5.19259 0,-3.20068 2.232048,-5.38074 2.241928,-2.18995 5.609752,-2.18995 2.03453,0 3.674002,0.81265 1.639451,0.80255 2.686345,2.25916 z m -29.994386,-2.70524 h 8.325738 v 1.43698 h -6.873926 v 4.55816 h 6.814665 v 1.42706 h -6.814665 v 5.71759 h 6.814665 v 1.43697 h -8.266477 z m -17.8267629007,0 H 2.8938929 q 2.4196997,0 3.2789392,0.19826 1.2937995,0.29718 2.103657,1.27837 0.8098586,0.97107 0.8098586,2.39793 0,1.18916 -0.5629498,2.09085 -0.5530752,0.90187 -1.5900876,1.36758 -1.0370148,0.4558 -2.8641369,0.46571 l 5.224577,6.77806 H 7.4962594 L 2.2815621,326.62619 H 1.4519503 v 6.77806 H 1.310993e-4 Z M 1.4519503,320.25456 v 4.95468 l 2.4987093,0.0191 q 1.4518204,0 2.143163,-0.27758 0.7012183,-0.27736 1.0863944,-0.88185 0.395054,-0.6144 0.395054,-1.36759 0,-0.7332 -0.395054,-1.32774 -0.3950519,-0.604 -1.0370126,-0.86175 -0.6419607,-0.25737 -2.1332871,-0.25737 z M 227.88781,290.50385 h 2.11204 v 13.03004 q 0,3.44155 -0.59931,5.03468 -0.82376,2.25416 -2.86094,3.47161 -2.03696,1.21724 -4.89809,1.21724 -2.09687,0 -3.77456,-0.6011 -1.66273,-0.58609 -2.71116,-1.59279 -1.04844,-0.99219 -1.93232,-2.91593 h 2.27681 q 0.9286,1.62319 2.39663,2.40463 1.468,0.78165 3.63977,0.78165 2.142,0 3.61001,-0.8117 1.48278,-0.79647 2.11205,-2.01365 0.62907,-1.21751 0.62907,-3.9227 v -0.84156 q -1.18344,1.50278 -2.8909,2.31447 -1.70765,0.79647 -3.625,0.79647 -2.24652,0 -4.22389,-1.11225 -1.97725,-1.12708 -3.05565,-3.02077 -1.07859,-1.8935 -1.07859,-4.16288 0,-2.26939 1.12352,-4.22319 1.12333,-1.96883 3.10058,-3.11094 1.99223,-1.1423 4.19394,-1.1423 1.82749,0 3.40034,0.7666 1.58762,0.75139 3.05565,2.49481 z m -6.18603,1.60796 q -1.7827,0 -3.31061,0.87181 -1.52774,0.85658 -2.39663,2.38941 -0.86871,1.51801 -0.86871,3.29147 0,2.69016 1.79752,4.44841 1.79732,1.75844 4.65825,1.75844 2.89109,0 4.64349,-1.74341 1.76756,-1.74322 1.76756,-4.58366 0,-1.84861 -0.8088,-3.29147 -0.80899,-1.45769 -2.29178,-2.29924 -1.48298,-0.84176 -3.19029,-0.84176 z m -26.54277,-1.60796 h 2.09707 v 2.93061 q 1.25832,-1.68331 2.78605,-2.50983 1.52791,-0.84175 3.32523,-0.84175 1.82749,0 3.23558,0.93192 1.42289,0.93172 2.09687,2.50983 0.6742,1.5779 0.6742,4.91446 v 8.41612 h -2.08209 v -7.79999 q 0,-2.82541 -0.23964,-3.77235 -0.37445,-1.62301 -1.4081,-2.43434 -1.03347,-0.82688 -2.69618,-0.82688 -1.90218,0 -3.41511,1.26252 -1.49797,1.26234 -1.97726,3.12597 -0.29955,1.21725 -0.29955,4.44861 v 5.99646 h -2.09707 z m -5.4373,-6.73302 q 0.71894,0 1.22836,0.51094 0.50925,0.51094 0.50925,1.23248 0,0.7063 -0.50925,1.21724 -0.50942,0.51095 -1.22836,0.51095 -0.70396,0 -1.2132,-0.51095 -0.5091,-0.51094 -0.5091,-1.21724 0,-0.72154 0.5091,-1.23248 0.50924,-0.51094 1.2132,-0.51094 z m -1.04844,6.73302 h 2.11205 v 16.35136 h -2.11205 z m -9.70632,0 h 2.142 v 2.38968 q 0.95857,-1.41288 2.02218,-2.10416 1.06342,-0.70649 2.21671,-0.70649 0.8689,0 1.85743,0.55622 l -1.09338,1.77327 q -0.65897,-0.28552 -1.10854,-0.28552 -1.04844,0 -2.02199,0.8718 -0.97375,0.85658 -1.48299,2.67513 -0.38942,1.39759 -0.38942,5.65083 v 5.5306 h -2.142 z m -4.64347,-6.73302 q 0.71923,0 1.22836,0.51094 0.50924,0.51094 0.50924,1.23248 0,0.7063 -0.50924,1.21724 -0.50913,0.51095 -1.22836,0.51095 -0.70396,0 -1.21319,-0.51095 -0.50925,-0.51094 -0.50925,-1.21724 0,-0.72154 0.50925,-1.23248 0.50923,-0.51094 1.21319,-0.51094 z m -1.04844,6.73302 h 2.11204 v 16.35136 h -2.11204 z m -5.91658,10.92595 1.76737,0.93172 q -0.86871,1.71336 -2.00721,2.7653 -1.13831,1.05214 -2.56138,1.60816 -1.42288,0.54101 -3.22039,0.54101 -3.98428,0 -6.23113,-2.61503 -2.24684,-2.63005 -2.24684,-5.93635 0,-3.11094 1.90236,-5.54563 2.4116,-3.0961 6.45578,-3.0961 4.16419,0 6.65068,3.17124 1.76737,2.23941 1.79733,5.59072 h -14.64917 q 0.0595,2.85546 1.81231,4.68905 1.75258,1.81835 4.32894,1.81835 1.24333,0 2.4116,-0.4358 1.18344,-0.43581 2.00721,-1.15713 0.82377,-0.72153 1.78254,-2.32951 z m 0,-4.40352 q -0.41957,-1.6833 -1.22837,-2.69016 -0.79382,-1.00686 -2.11204,-1.62319 -1.31804,-0.61614 -2.77107,-0.61614 -2.39663,0 -4.11907,1.54806 -1.25832,1.12707 -1.90236,3.38143 z m -30.93128,5.71094 1.87221,-1.12709 q 1.97724,3.65194 4.56858,3.65194 1.10857,0 2.08209,-0.51094 0.97356,-0.52597 1.4828,-1.39757 0.50943,-0.87182 0.50943,-1.84862 0,-1.11225 -0.74908,-2.17922 -1.03346,-1.47291 -3.77457,-3.54673 -2.7561,-2.08907 -3.43008,-3.02099 -1.16846,-1.56287 -1.16846,-3.38143 0,-1.44267 0.68898,-2.63005 0.68917,-1.18719 1.93231,-1.86364 1.25832,-0.69128 2.72614,-0.69128 1.55787,0 2.90586,0.78144 1.36316,0.76662 2.87591,2.84064 l -1.79732,1.36753 q -1.24334,-1.65325 -2.12703,-2.17922 -0.8687,-0.52597 -1.90236,-0.52597 -1.33301,0 -2.18693,0.81149 -0.83876,0.8117 -0.83876,1.99889 0,0.72133 0.29955,1.39778 0.29957,0.67625 1.09358,1.47272 0.43435,0.42077 2.84596,2.20927 2.86092,2.11911 3.92434,3.77196 1.06362,1.65345 1.06362,3.32173 0,2.40463 -1.82749,4.17791 -1.81248,1.77347 -4.4188,1.77347 -2.0072,0 -3.63977,-1.06697 -1.63277,-1.0822 -3.01071,-3.60705 z M 91.460693,290.50385 h 2.112008 v 13.03004 q 0,3.44155 -0.599186,5.03468 -0.823817,2.25416 -2.860939,3.47161 -2.037101,1.21724 -4.898053,1.21724 -2.097069,0 -3.774676,-0.6011 -1.662638,-0.58609 -2.711154,-1.59279 -1.048515,-0.99219 -1.932278,-2.91593 h 2.276781 q 0.92867,1.62319 2.396609,2.40463 1.467928,0.78165 3.639849,0.78165 2.141969,0 3.609901,-0.8117 1.482912,-0.79647 2.112016,-2.01365 0.629122,-1.21751 0.629122,-3.9227 v -0.84156 q -1.18334,1.50278 -2.890919,2.31447 -1.707593,0.79647 -3.624872,0.79647 -2.246831,0 -4.22404,-1.11225 -1.97719,-1.12708 -3.055687,-3.02077 -1.078469,-1.8935 -1.078469,-4.16288 0,-2.26939 1.123424,-4.22319 1.123405,-1.96883 3.100614,-3.11094 1.992169,-1.1423 4.194068,-1.1423 1.827417,0 3.400194,0.7666 1.587751,0.75139 3.055687,2.49481 z m -6.18626,1.60796 q -1.782487,0 -3.310325,0.87181 -1.527846,0.85658 -2.39661,2.38941 -0.868784,1.51801 -0.868784,3.29147 0,2.69016 1.797459,4.44841 1.797466,1.75844 4.658419,1.75844 2.890893,0 4.64343,-1.74341 1.767509,-1.74322 1.767509,-4.58366 0,-1.84861 -0.808855,-3.29147 -0.808854,-1.45769 -2.291758,-2.29924 -1.482916,-0.84176 -3.190485,-0.84176 z m -26.542488,-1.60796 h 2.097053 v 2.93061 q 1.258204,-1.68331 2.786046,-2.50983 1.527842,-0.84175 3.325301,-0.84175 1.827416,0 3.235436,0.93192 1.422979,0.93172 2.097033,2.50983 0.674036,1.5779 0.674036,4.91446 v 8.41612 h -2.082056 v -7.79999 q 0,-2.82541 -0.239662,-3.77235 -0.374463,-1.62301 -1.408001,-2.43434 -1.033539,-0.82688 -2.696212,-0.82688 -1.902292,0 -3.415155,1.26252 -1.497867,1.26234 -1.977193,3.12597 -0.299573,1.21725 -0.299573,4.44861 v 5.99646 h -2.097053 z m -5.437324,-6.73302 q 0.718998,0 1.22828,0.51094 0.50928,0.51094 0.50928,1.23248 0,0.7063 -0.50928,1.21724 -0.509282,0.51095 -1.22828,0.51095 -0.70398,0 -1.213261,-0.51095 -0.509281,-0.51094 -0.509281,-1.21724 0,-0.72154 0.509281,-1.23248 0.509281,-0.51094 1.213261,-0.51094 z m -1.048505,6.73302 h 2.112029 v 16.35136 h -2.112029 z m -9.706265,0 h 2.141966 v 2.38968 q 0.95865,-1.41288 2.022144,-2.10416 1.063494,-0.70649 2.216875,-0.70649 0.868764,0 1.85737,0.55622 l -1.093449,1.77327 q -0.659078,-0.28552 -1.108447,-0.28552 -1.048517,0 -2.022163,0.8718 -0.97359,0.85658 -1.48287,2.67513 -0.38946,1.39759 -0.38946,5.65083 v 5.5306 h -2.141966 z m -4.643438,-6.73302 q 0.718988,0 1.228269,0.51094 0.509281,0.51094 0.509281,1.23248 0,0.7063 -0.509281,1.21724 -0.509281,0.51095 -1.228269,0.51095 -0.70401,0 -1.21329,-0.51095 -0.509285,-0.51094 -0.509285,-1.21724 0,-0.72154 0.509285,-1.23248 0.50928,-0.51094 1.21329,-0.51094 z m -1.048516,6.73302 h 2.11201 v 16.35136 h -2.11201 z m -5.916638,10.92595 1.767504,0.93172 q -0.868764,1.71336 -2.007167,2.7653 -1.138382,1.05214 -2.561381,1.60816 -1.422977,0.54101 -3.220438,0.54101 -3.984359,0 -6.231188,-2.61503 -2.24683,-2.63005 -2.24683,-5.93635 0,-3.11094 1.902323,-5.54563 2.411584,-3.0961 6.455874,-3.0961 4.164112,0 6.650583,3.17124 1.767506,2.23941 1.797461,5.59072 H 18.588722 q 0.05991,2.85546 1.812437,4.68905 1.752508,1.81835 4.328866,1.81835 1.243246,0 2.411604,-0.4358 1.183316,-0.43581 2.007148,-1.15713 0.823852,-0.72153 1.782482,-2.32951 z m 0,-4.40352 q -0.419394,-1.6833 -1.228248,-2.69016 -0.793896,-1.00686 -2.112032,-1.62319 -1.318134,-0.61614 -2.771068,-0.61614 -2.396627,0 -4.119178,1.54806 -1.258224,1.12707 -1.902328,3.38143 z M -5.6624413e-7,302.73722 1.8723517,301.61013 q 1.9772037,3.65194 4.5685398,3.65194 1.1084333,0 2.0820579,-0.51094 0.9736211,-0.52597 1.4829036,-1.39757 0.509287,-0.87182 0.509287,-1.84862 0,-1.11225 -0.748949,-2.17922 -1.0335387,-1.47291 -3.7746634,-3.54673 -2.7561025,-2.08907 -3.4301493,-3.02099 -1.1683481,-1.56287 -1.1683481,-3.38143 0,-1.44267 0.6890247,-2.63005 0.6890267,-1.18719 1.9322688,-1.86364 1.25822,-0.69128 2.7261452,-0.69128 1.5577974,0 2.9058905,0.78144 1.3630646,0.76662 2.8759286,2.84064 l -1.79746,1.36753 q -1.2432346,-1.65325 -2.1269843,-2.17922 -0.8687728,-0.52597 -1.9023118,-0.52597 -1.3331143,0 -2.1869071,0.81149 -0.8388167,0.8117 -0.8388167,1.99889 0,0.72133 0.2995787,1.39778 0.2995772,0.67625 1.0934535,1.47272 0.4343864,0.42077 2.8459764,2.20927 2.8609643,2.11911 3.9244583,3.77196 1.063494,1.65345 1.063494,3.32173 0,2.40463 -1.827415,4.17791 -1.8124429,1.77347 -4.4187592,1.77347 -2.0071611,0 -3.6398526,-1.06697 -1.6326916,-1.0822 -3.01074276624413,-3.60705 z"
       inkscape:connector-curvature="0" />
  </g>
</svg>
